<svg version="1.1" viewBox="0.0 0.0 960.0 720.0" fill="none" stroke="none" stroke-linecap="square" stroke-miterlimit="10" xmlns:xlink="http://www.w3.org/1999/xlink" xmlns="http://www.w3.org/2000/svg"><clipPath id="p.0"><path d="m0 0l960.0 0l0 720.0l-960.0 0l0 -720.0z" clip-rule="nonzero"/></clipPath><g clip-path="url(#p.0)"><path fill="#000000" fill-opacity="0.0" d="m0 0l960.0 0l0 720.0l-960.0 0z" fill-rule="evenodd"/><path fill="#f9cb9c" d="m309.8343 94.8865l26.572327 -5.455513l81.77908 398.11633l300.95523 -61.788574l4.9610596 24.151367l-327.52753 67.24411z" fill-rule="evenodd"/><path stroke="#f6b26b" stroke-width="1.0" stroke-linejoin="round" stroke-linecap="butt" d="m309.8343 94.8865l26.572327 -5.455513l81.77908 398.11633l300.95523 -61.788574l4.9610596 24.151367l-327.52753 67.24411z" fill-rule="evenodd"/><path fill="#e69138" d="m317.2126 579.19684l0 0c0 -58.672607 48.88205 -106.236206 109.18112 -106.236206l0 0c28.956635 0 56.727264 11.1927185 77.2027 31.115875c20.475433 19.923126 31.978424 46.944733 31.978424 75.12033l0 0c0 58.67267 -48.88208 106.236206 -109.18112 106.236206l0 0c-60.299072 0 -109.18112 -47.563538 -109.18112 -106.236206zm37.970978 0l0 0c0 37.701904 31.881866 68.26526 71.210144 68.26526c39.328278 0 71.210144 -30.563354 71.210144 -68.26526c0 -37.701843 -31.881866 -68.26526 -71.210144 -68.26526l0 0c-39.328278 0 -71.210144 30.563416 -71.210144 68.26526z" fill-rule="evenodd"/><path stroke="#e69138" stroke-width="1.0" stroke-linejoin="round" stroke-linecap="butt" d="m317.2126 579.19684l0 0c0 -58.672607 48.88205 -106.236206 109.18112 -106.236206l0 0c28.956635 0 56.727264 11.1927185 77.2027 31.115875c20.475433 19.923126 31.978424 46.944733 31.978424 75.12033l0 0c0 58.67267 -48.88208 106.236206 -109.18112 106.236206l0 0c-60.299072 0 -109.18112 -47.563538 -109.18112 -106.236206zm37.970978 0l0 0c0 37.701904 31.881866 68.26526 71.210144 68.26526c39.328278 0 71.210144 -30.563354 71.210144 -68.26526c0 -37.701843 -31.881866 -68.26526 -71.210144 -68.26526l0 0c-39.328278 0 -71.210144 30.563416 -71.210144 68.26526z" fill-rule="evenodd"/><path fill="#ffff00" d="m396.88266 74.79527l-320.15866 184.07625l197.70233 58.901733l-247.86728 141.36935l343.68872 58.011017l-202.04904 -59.48404l243.43967 -141.36649l-182.94943 -69.21309z" fill-rule="evenodd"/><path stroke="#ffff00" stroke-width="1.0" stroke-linejoin="round" stroke-linecap="butt" d="m396.88266 74.79527l-320.15866 184.07625l197.70233 58.901733l-247.86728 141.36935l343.68872 58.011017l-202.04904 -59.48404l243.43967 -141.36649l-182.94943 -69.21309z" fill-rule="evenodd"/><path fill="#6d9eeb" d="m686.3884 293.71964l-234.40442 48.776764l-8.008148 -39.080933l234.40445 -48.77678z" fill-rule="evenodd"/><path stroke="#6d9eeb" stroke-width="1.0" stroke-linejoin="round" stroke-linecap="butt" d="m686.3884 293.71964l-234.40442 48.776764l-8.008148 -39.080933l234.40445 -48.77678z" fill-rule="evenodd"/><path fill="#6d9eeb" d="m403.95013 159.05115l298.32098 -54.93566l-21.876709 344.4214l-38.592346 2.2934875l14.754456 -302.46124l-241.96674 47.216644z" fill-rule="evenodd"/><path stroke="#6d9eeb" stroke-width="1.0" stroke-linejoin="round" stroke-linecap="butt" d="m403.95013 159.05115l298.32098 -54.93566l-21.876709 344.4214l-38.592346 2.2934875l14.754456 -302.46124l-241.96674 47.216644z" fill-rule="evenodd"/><path fill="#6d9eeb" d="m677.0103 447.26727l-180.9906 38.100616l-113.91211 -320.7904l44.286682 -8.829468l95.8996 284.75385l150.32184 -22.192963z" fill-rule="evenodd"/><path stroke="#6d9eeb" stroke-width="1.0" stroke-linejoin="round" stroke-linecap="butt" d="m677.0103 447.26727l-180.9906 38.100616l-113.91211 -320.7904l44.286682 -8.829468l95.8996 284.75385l150.32184 -22.192963z" fill-rule="evenodd"/></g></svg>